<svg width="287" height="247" viewBox="0 0 287 247" fill="none" xmlns="http://www.w3.org/2000/svg">
<path fill-rule="evenodd" clip-rule="evenodd" d="M267.48 162.158C265.377 154.733 263.543 148.26 262.239 143C245.137 74 209.633 36.5 144.739 36.5C79.846 36.5 46.3953 86 27.2395 143C26.8176 144.255 26.3732 145.572 25.909 146.947C18.3702 169.277 5.63651 206.995 0.379547 247L286.587 247C282.407 214.862 273.746 184.283 267.48 162.158Z" fill="black"/>
<path d="M226.185 8.6488L189.239 46L234.739 81V12.165C234.739 7.69726 229.326 5.47244 226.185 8.6488Z" fill="black"/>
<path d="M57.3762 10.7921L104.739 46L56.7393 85.5L49.4203 15.3235C48.9687 10.9935 53.8824 8.19487 57.3762 10.7921Z" fill="black"/>
<circle cx="98.2393" cy="121.5" r="21" fill="#D1E74B"/>
<circle cx="196.239" cy="121.5" r="21" fill="#D1E74B"/>
</svg>
