<svg width="303" height="253" viewBox="0 0 303 253" fill="none" xmlns="http://www.w3.org/2000/svg">
<g filter="url(#filter0_d_11_21)">
<path fill-rule="evenodd" clip-rule="evenodd" d="M283.48 162.158C281.377 154.733 279.543 148.26 278.239 143C261.137 74 225.633 36.5 160.739 36.5C95.846 36.5 62.3953 86 43.2395 143C42.8176 144.255 42.3732 145.572 41.909 146.947C34.3702 169.277 21.6365 206.995 16.3795 247L302.587 247C298.407 214.862 289.746 184.283 283.48 162.158Z" fill="black"/>
<path d="M242.185 8.6488L205.239 46L250.739 81V12.165C250.739 7.69726 245.326 5.47244 242.185 8.6488Z" fill="black"/>
<path d="M73.3762 10.7921L120.739 46L72.7393 85.5L65.4203 15.3235C64.9687 10.9935 69.8824 8.19487 73.3762 10.7921Z" fill="black"/>
<circle cx="114.239" cy="121.5" r="21" fill="#D1E74B"/>
<circle cx="212.239" cy="121.5" r="21" fill="#D1E74B"/>
</g>
<defs>
<filter id="filter0_d_11_21" x="0.379547" y="1.15493" width="302.207" height="251.845" filterUnits="userSpaceOnUse" color-interpolation-filters="sRGB">
<feFlood flood-opacity="0" result="BackgroundImageFix"/>
<feColorMatrix in="SourceAlpha" type="matrix" values="0 0 0 0 0 0 0 0 0 0 0 0 0 0 0 0 0 0 127 0" result="hardAlpha"/>
<feOffset dx="-10"/>
<feGaussianBlur stdDeviation="3"/>
<feComposite in2="hardAlpha" operator="out"/>
<feColorMatrix type="matrix" values="0 0 0 0 1 0 0 0 0 1 0 0 0 0 1 0 0 0 0.65 0"/>
<feBlend mode="normal" in2="BackgroundImageFix" result="effect1_dropShadow_11_21"/>
<feBlend mode="normal" in="SourceGraphic" in2="effect1_dropShadow_11_21" result="shape"/>
</filter>
</defs>
</svg>
