<svg width="292" height="411" viewBox="0 0 292 411" fill="none" xmlns="http://www.w3.org/2000/svg">
<path d="M265 143.5C279.5 202 359.5 410.5 147.5 410.5C-64.4999 410.5 9.5 204.5 30.0001 143.5C49.156 86.5 82.6067 37 147.5 37C212.394 37 247.898 74.5 265 143.5Z" fill="black"/>
<path d="M228.945 9.1488L192 46.5L237.5 81.5V12.665C237.5 8.19726 232.087 5.97244 228.945 9.1488Z" fill="black"/>
<path d="M60.1369 11.2921L107.5 46.5L59.5 86L52.181 15.8235C51.7294 11.4935 56.6431 8.69487 60.1369 11.2921Z" fill="black"/>
<circle cx="101" cy="122" r="21" fill="#D1E74B"/>
<circle cx="199" cy="122" r="21" fill="#D1E74B"/>
</svg>
