<svg width="287" height="247" viewBox="0 0 287 247" fill="none" xmlns="http://www.w3.org/2000/svg">
<path fill-rule="evenodd" clip-rule="evenodd" d="M267.1 162.158C264.997 154.733 263.164 148.26 261.86 143C244.758 74 209.253 36.5 144.36 36.5C79.4665 36.5 46.0158 86 26.8599 143C26.4381 144.255 25.9936 145.572 25.5294 146.947C17.9907 169.277 5.25697 206.995 0 247H286.207C282.028 214.862 273.367 184.283 267.1 162.158Z" fill="black"/>
<path d="M225.805 8.6488L188.86 46L234.36 81V12.165C234.36 7.69726 228.947 5.47244 225.805 8.6488Z" fill="black"/>
<path d="M56.9967 10.7921L104.36 46L56.3598 85.5L49.0407 15.3235C48.5892 10.9935 53.5029 8.19487 56.9967 10.7921Z" fill="black"/>
<path d="M140 122C140 129.271 135.367 135.998 127.576 140.955C119.797 145.906 108.989 149 97 149C85.0105 149 74.2031 145.906 66.4242 140.955C58.6334 135.998 54 129.271 54 122C54 114.729 58.6334 108.002 66.4242 103.045C74.2031 98.0945 85.0105 95 97 95C108.989 95 119.797 98.0945 127.576 103.045C135.367 108.002 140 114.729 140 122Z" stroke="white" stroke-width="2"/>
<path d="M239 122C239 129.271 234.367 135.998 226.576 140.955C218.797 145.906 207.989 149 196 149C184.011 149 173.203 145.906 165.424 140.955C157.633 135.998 153 129.271 153 122C153 114.729 157.633 108.002 165.424 103.045C173.203 98.0945 184.011 95 196 95C207.989 95 218.797 98.0945 226.576 103.045C234.367 108.002 239 114.729 239 122Z" stroke="white" stroke-width="2"/>
<path d="M140 123L142.547 122.151C144.796 121.401 147.22 121.349 149.5 122V122L153 123" stroke="white" stroke-width="3" stroke-linejoin="round"/>
<path d="M84.7285 108.311L80.2763 109.22C76.1942 110.052 72.4741 112.139 69.6354 115.188L66.7285 118.311" stroke="white" stroke-width="3" stroke-linecap="round"/>
<path d="M186.601 107.882L182.149 108.79C178.067 109.623 174.347 111.71 171.508 114.759L168.601 117.882" stroke="white" stroke-width="3" stroke-linecap="round"/>
</svg>
